HIERARCHY
ROOT MidHip
{
    OFFSET 0.0 0.0 0.0
    CHANNELS 6 Xposition Yposition Zposition Zrotation Xrotation Yrotation
    JOINT Spine
    {
        OFFSET 0.0 0.0 13.793179754071973
        CHANNELS 3 Zrotation Xrotation Yrotation
        JOINT MidShoulder
        {
            OFFSET 0.0 0.0 13.793179754071973
            CHANNELS 3 Zrotation Xrotation Yrotation
            JOINT Nose
            {
                OFFSET 0.0 0.0 11.766611746094508
                CHANNELS 3 Zrotation Xrotation Yrotation
                End Site
                {
                    OFFSET 0.0 0.0 4.7066446984378025
                }
            }
            JOINT RightShoulder
            {
                OFFSET -9.18710738646973 0.0 0.0
                CHANNELS 3 Zrotation Xrotation Yrotation
                JOINT RightElbow
                {
                    OFFSET -14.214874277997701 0.0 0.0
                    CHANNELS 3 Zrotation Xrotation Yrotation
                    JOINT RightWrist
                    {
                        OFFSET -12.455885454398851 0.0 0.0
                        CHANNELS 3 Zrotation Xrotation Yrotation
                        End Site
                        {
                            OFFSET -3.5230564281953227 3.5230564281953227 0.0
                        }
                        End Site
                        {
                            OFFSET -4.98235418175954 0.0 0.0
                        }
                        End Site
                        {
                            OFFSET -3.5230564281953227 -3.5230564281953227 0.0
                        }
                    }
                }
            }
            JOINT LeftShoulder
            {
                OFFSET 9.18710738646973 0.0 0.0
                CHANNELS 3 Zrotation Xrotation Yrotation
                JOINT LeftElbow
                {
                    OFFSET 14.214874277997701 0.0 0.0
                    CHANNELS 3 Zrotation Xrotation Yrotation
                    JOINT LeftWrist
                    {
                        OFFSET 12.455885454398851 0.0 0.0
                        CHANNELS 3 Zrotation Xrotation Yrotation
                        End Site
                        {
                            OFFSET 3.5230564281953227 3.5230564281953227 0.0
                        }
                        End Site
                        {
                            OFFSET 4.98235418175954 0.0 0.0
                        }
                        End Site
                        {
                            OFFSET 3.5230564281953227 -3.5230564281953227 0.0
                        }
                    }
                }
            }
        }
    }
    JOINT RightHip
    {
        OFFSET -5.228159949566038 0.0 0.0
        CHANNELS 3 Zrotation Xrotation Yrotation
        JOINT RightKnee
        {
            OFFSET 0.0 0.0 -19.220720234385468
            CHANNELS 3 Zrotation Xrotation Yrotation
            JOINT RightAnkle
            {
                OFFSET 0.0 0.0 -20.30758457654049
                CHANNELS 3 Zrotation Xrotation Yrotation
                End Site
                {
                    OFFSET 0.0 5.743852305436449 -5.743852305436449
                }
                End Site
                {
                    OFFSET 0.0 -5.743852305436449 -5.743852305436449
                }
            }
        }
    }
    JOINT LeftHip
    {
        OFFSET 5.228159949566038 0.0 0.0
        CHANNELS 3 Zrotation Xrotation Yrotation
        JOINT LeftKnee
        {
            OFFSET 0.0 0.0 -19.220720234385468
            CHANNELS 3 Zrotation Xrotation Yrotation
            JOINT LeftAnkle
            {
                OFFSET 0.0 0.0 -20.30758457654049
                CHANNELS 3 Zrotation Xrotation Yrotation
                End Site
                {
                    OFFSET 0.0 5.743852305436449 -5.743852305436449
                }
                End Site
                {
                    OFFSET 0.0 -5.743852305436449 -5.743852305436449
                }
            }
        }
    }
}
MOTION
Frames: 7
Frame Time: 0.03333333333333333
20.225875540093718 42.717538782359 4.300068084805175 -138.14874650094137 3.9877055564590336 -76.66733113508916 0.27299978419699916 4.700555258805717 0.3013556903665024 -26.500375662244668 -4.553872618495321e-15 5.462772609528613e-15 3.1805546814635168e-15 0.0 0.0 86.33622653707693 -5.7612794683886435 -106.7274802791384 54.82695416473618 -1.1398912517087482e-14 -1.2537378078847836e-15 27.541471594147435 13.647183839428257 -7.014474694678705 140.64468330007236 -10.626805709363788 95.68448996800917 -22.332833883172817 2.5578688731009254e-14 1.807210036992692e-15 -11.809360707584704 -19.066218343965485 176.09284189568893 0.272042989852091 4.684154575514563 0.9766304011519603 -1.770795603847172 -22.32164585550397 -7.242946497430042 0.0 0.0 0.0 11.055853725034005 73.1862812575316 -11.584733783882722 0.015638903986570335 -18.009720286045358 4.779958410689907 0.0 0.0 0.0
20.273948810649618 42.66915732398363 4.25228095326156 -138.31957042880475 4.247054653844968 -76.62437375150787 0.2622507487157112 4.986974736160231 0.2762122872204796 -26.038985225493537 -7.630634187247485e-15 4.764540539721102e-15 0.0 0.0 0.0 87.01408421779074 -2.8205070144286295 -106.76017959986295 57.62501197652529 1.1147227213262988e-14 -6.131408872711149e-15 35.110413218866256 12.932898178240603 -8.942558818180176 141.8580484974462 -10.058051513113988 95.65343289678833 -22.980033761358918 1.3100815734561751e-14 -5.825843109033054e-16 -11.037169928583735 -25.130547240826672 175.2646692153159 0.4017775121711204 7.6143936860464505 0.5438151300747751 -1.748076041348117 -26.03590991242199 -4.979127383586157 0.0 0.0 6.3611093629270335e-15 10.029536983224444 73.23819459647957 -10.933219848320196 0.15035807169549273 -17.80110289445765 5.342784987865996 0.0 0.0 0.0
20.40259081218313 42.771274243968364 4.15487844436226 -138.20720745052716 4.189281814803361 -76.48209573755707 0.2698240028563612 4.825409581075057 0.4247210543615607 -26.546895218811947 -1.2382349480013694e-14 -2.921005077584855e-15 -1.5902773407317584e-15 0.0 0.0 87.26853365172494 -2.7086032044164257 -106.78442586084446 56.41301751649654 -2.802863065484086e-15 1.5032919603073269e-15 27.397994012412642 26.624827980742243 -13.076620328600585 142.85411358711102 -10.55421384154093 95.07774641151671 -21.93572255651721 -5.034663575883676e-15 -7.455171851265815e-15 -11.519380048103693 -46.00249779149261 171.65923575354665 0.3237531661597294 5.783845782318512 0.4896894303695826 -1.4542169830660088 -21.432608519157515 -4.362232309756208 0.0 0.0 0.0 10.300640177750926 72.67349979192169 -11.707150909726662 0.29097036259229697 -17.405276703300714 5.676217095653024 0.0 0.0 0.0
20.55369546410327 42.894792493556636 3.93970530897985 -138.06675278467844 3.8690278565609435 -76.14250959884562 0.29137266561893865 4.798559478911587 0.5863232369292052 -27.28911493645249 1.5005724118413678e-15 -6.181585133599516e-15 1.5902773407317584e-15 0.0 0.0 90.01389747598826 -2.031444470497289 -107.7154041861234 61.897200187642234 -1.0871696628965258e-15 -1.4182264408748954e-14 23.689760573329707 17.935432372111933 -7.694794232012229 147.63267747020456 -11.009863148665318 95.75178951314264 -20.10605528601733 -1.3082085842972156e-14 9.109376418607905e-16 -12.051898240146443 -41.441344279065206 171.9569061632809 0.5935253226260349 9.703585780418596 -0.16431979003589356 -1.6518325713161446 -26.19965998258419 -3.170259825959648 0.0 0.0 0.0 10.397694996653161 71.44550274694049 -12.308328757385892 0.3733125835357939 -15.411386799740287 5.114990724363532 0.0 -6.3611093629270335e-15 0.0
20.590736311784223 43.16154063774871 3.790754321411783 -138.8341129540364 6.228564350981164 -75.79889755944006 0.2641995337364257 4.710261535137854 1.0178533751710834 -25.352028162143643 -7.60193462716563e-15 4.810199016520634e-15 0.0 0.0 0.0 82.24905822384534 -1.2454067329503409 -108.65442710621146 54.2408970302918 -5.6617064489583345e-15 2.899791787860224e-15 32.66376911432981 34.96421134764377 -20.17279947148164 149.21566846631137 -11.415217700491459 94.82987542425766 -17.78905231242449 6.776379384370559e-15 -2.158778091415406e-15 -15.71307666643357 -50.46625911340611 167.75781259923534 0.5898996026742388 10.424033966421403 -0.5307003181116414 -1.253877774889595 -24.68088420129276 -2.408262139187832 -3.1805546814635168e-15 0.0 0.0 9.267098691342813 70.8366464628049 -8.282213276515938 -0.36516302694459823 -13.520324820217285 2.8310057696271516 0.0 0.0 0.0
20.67111170308505 43.30641929103401 3.468212517841956 -139.07266329428984 7.619884352314488 -75.42480781021362 0.22432415967458383 4.579089404611977 1.2655652219144935 -25.080187669382042 -1.7943287476523012e-14 2.2075159819969865e-14 -1.5902773407317584e-15 0.0 0.0 84.71210052071132 -1.9050928898091923 -111.57191635902105 51.336963265634225 -8.71133281555467e-15 1.1244164807233576e-14 36.84473372693084 21.29159647355568 -15.220958920838804 153.5363693549335 -11.09661799755967 95.13835296908378 -20.07594547345013 -1.4190592614298872e-14 7.178111401997984e-15 -11.805325012231906 -43.88916117850333 171.7553392120792 0.5070047678324134 10.260279735378226 -0.45230458631971054 -0.9892506072846974 -22.45682658077783 -2.3916243575665552 -3.1805546814635168e-15 0.0 0.0 7.893966826143271 70.40752282042513 -6.220859825078434 -0.4866038361142157 -12.737846483444988 1.8874760125732448 0.0 0.0 0.0
20.588980952760032 43.33326538259861 3.4719283714086724 -138.41500192152074 5.93695350150315 -75.71383602404948 0.17959610638079343 4.401237886608896 1.249292832171419 -26.559083659704733 -7.478992829750897e-15 1.7842477554375007e-14 -1.5902773407317584e-15 0.0 0.0 104.17484859629691 -8.201965747274349 -105.9287306905119 53.28574772502474 5.685679982569093e-15 -2.8524998620387492e-15 25.399635863971042 -9.779881384904431 4.611254122280363 157.97819398700827 -11.158086808216224 95.58666240655548 -19.752711025131426 1.362475163935848e-14 -4.084691469546779e-15 -9.582011091235506 -50.547041198914826 172.57339862812924 0.453872295636001 11.007125322641606 -0.03685511392031034 -0.8802484149946105 -20.611981258735426 -2.5663060203825756 0.0 0.0 0.0 6.152138910121957 69.1926079649733 -6.022665862473896 -0.11182044708155835 -11.389579672301965 1.771908315465518 6.3611093629270335e-15 0.0 0.0
